<svg id="Group_12" data-name="Group 12" xmlns="http://www.w3.org/2000/svg" xmlns:xlink="http://www.w3.org/1999/xlink" width="245.396" height="90.924" viewBox="0 0 245.396 90.924">
  <defs>
    <clipPath id="clip-path">
      <rect id="Rectangle_114" data-name="Rectangle 114" width="245.396" height="90.924" fill="#daefe8"/>
    </clipPath>
  </defs>
  <g id="Group_11" data-name="Group 11" clip-path="url(#clip-path)">
    <path id="Path_22" data-name="Path 22" d="M16.823,72.609,16.8,72.6C3.491,63.095-1.793,49.751.531,37.083a1.879,1.879,0,0,0-.192-1.131A1.1,1.1,0,0,1,.3,35.137,40.391,40.391,0,0,1,4.63,25.73,47.335,47.335,0,0,1,22.062,9.443,65.583,65.583,0,0,1,50.19,1.81a61.792,61.792,0,0,1,15,1.044A60.547,60.547,0,0,1,78.873,7.521c4.233,1.962,8.267,4.123,12.738,5.854A47.268,47.268,0,0,0,106.857,16.5c11.622.458,22.718-2.338,33.027-5.565C150.7,7.547,161.26,3.824,172.919,1.8a108.847,108.847,0,0,1,34.412-.779c10.09,1.517,19.791,4.834,26.831,9.88,6.984,5.006,11.259,11.732,11.233,18.554A18.1,18.1,0,0,1,241.962,39.5c-2.19,3.256-5.185,6.236-7.871,9.317a42.828,42.828,0,0,0-6.315,9.541c-1.613,3.321-2.936,6.7-4.638,10a34.744,34.744,0,0,1-6.646,9.309A38.636,38.636,0,0,1,205.9,84.714c-19.1,8.926-43.964,6.863-64.916,2.3-11.017-2.4-21.915-5.69-33.562-6.522a80.774,80.774,0,0,0-17.18.724c-5.644.8-11.167,1.924-16.8,2.758a93.438,93.438,0,0,1-16.259,1.149,81.847,81.847,0,0,1-14.935-1.789Q40.68,83,39.138,82.6a68.343,68.343,0,0,1-22.315-9.991" transform="translate(0 0)" fill="#daefe8"/>
  </g>
</svg>
